<?xml version="1.0" encoding="utf-8"?>
<!-- Generator: Adobe Illustrator 23.0.3, SVG Export Plug-In . SVG Version: 6.00 Build 0)  -->
<svg version="1.1" xmlns="http://www.w3.org/2000/svg" xmlns:xlink="http://www.w3.org/1999/xlink" x="0px" y="0px"
	 viewBox="0 0 1440 8401" style="enable-background:new 0 0 1440 8401;" xml:space="preserve">
<style type="text/css">
	.st0{fill:#7FA4D0;}
	.st1{fill:none;}
	.st2{fill:#FCDD00;}
	.st3{font-family:'Overseer';}
	.st4{font-size:36px;}
	.st5{letter-spacing:21;}
	.st6{letter-spacing:13;}
	.st7{letter-spacing:12;}
	.st8{letter-spacing:-3;}
	.st9{display:none;}
	.st10{font-size:130px;}
	.st11{font-family:'Overseer-BoldItalic';}
	.st12{font-size:72px;}
</style>
<g id="Layer_1">
	<rect class="st0" width="1440" height="8401"/>
	
		<image style="display:none;overflow:visible;" width="2560" height="1440" xlink:href="721F83E1.jpg"  transform="matrix(2.8504 0 0 2.8504 -1046 -5)">
	</image>
	
		<image style="display:none;overflow:visible;" width="474" height="296" xlink:href="721F83E3.jpg"  transform="matrix(14.0907 0 0 14.0907 -1387 -26.9494)">
	</image>
	
		<image style="overflow:visible;" width="1600" height="726" xlink:href="721F83E6.jpg"  transform="matrix(0.6075 0 0 0.6075 216 31)">
	</image>
	<rect x="25.64" y="656" class="st1" width="1068.36" height="9507"/>
	<text transform="matrix(1 0 0 1 25.6382 680.6133)"><tspan x="0" y="0" class="st2 st3 st4">Did you know, the fallout series takes place during the aftermath of a nuclear </tspan><tspan x="0" y="43.2" class="st2 st3 st4">war between China and the United States during the 22nd and 23rd centuries. </tspan><tspan x="0" y="86.4" class="st2 st3 st4">However dispite taking place almost three centuries ahead of our timeline, the </tspan><tspan x="0" y="129.6" class="st2 st3 st4">design, setting, and art all take inspiriation from 1950’s post war America. The </tspan><tspan x="0" y="172.8" class="st2 st3 st4">hopeful ideals of a better future and the hope that technology will solve all </tspan><tspan x="0" y="216" class="st2 st3 st4">problems. The only downside being the threat of nuclear annihilation and </tspan><tspan x="972.07" y="216" class="st2 st3 st4 st5">	</tspan><tspan x="1008" y="216" class="st2 st3 st4 st5">	</tspan><tspan x="0" y="259.2" class="st2 st3 st4">espionage from the dreaded communists. Our timeline and the Fallout series’ </tspan><tspan x="0" y="302.4" class="st2 st3 st4">timeline were one in the same until an event known as the Divergence. The Di</tspan><tspan x="1038.43" y="302.4" class="st2 st3 st4">-</tspan><tspan x="0" y="345.6" class="st2 st3 st4">vergence is a point in time where our timeline and Fallout’s breaks off. So the </tspan><tspan x="0" y="388.8" class="st2 st3 st4">miniaturization of computers and other electronics weren’t as prodominant. As </tspan><tspan x="0" y="432" class="st2 st3 st4">a result computers still used reel-to-reel tape, took up large amounts of room, </tspan><tspan x="0" y="475.2" class="st2 st3 st4">and instead of transistors, large vacuum tubes were used to process electrical </tspan><tspan x="0" y="518.4" class="st2 st3 st4">signals.</tspan><tspan x="0" y="1123.2" class="st2 st3 st4">Another bit of inspiration for the apocalyptic portion of the Fallout series is </tspan><tspan x="0" y="1166.4" class="st2 st3 st4">Mad Max. This can be seen in the leather armor and the partnership between </tspan><tspan x="0" y="1209.6" class="st2 st3 st4">the main protaginast and their dog. In addition one of the factions that you </tspan><tspan x="1016.02" y="1209.6" class="st2 st3 st4 st6">	</tspan><tspan x="0" y="1252.8" class="st2 st3 st4">encounter, the raiders take their design concepts from Mad Max as well.</tspan><tspan x="0" y="1944" class="st2 st3 st4">during the creation of the Fallout series was heavily based on a similar </tspan><tspan x="0" y="1987.2" class="st2 st3 st4">post-apocalyptic game called Wasteland that in some ways is its successor. </tspan><tspan x="0" y="2030.4" class="st2 st3 st4">After the release, the developer Interplay Entertainment started to work on a </tspan><tspan x="0" y="2073.6" class="st2 st3 st4">game called Meantime. However this game was canceled because it was set to </tspan><tspan x="0" y="2116.8" class="st2 st3 st4">release during a time where video games with 16 color vga graphics were </tspan><tspan x="0" y="2160" class="st2 st3 st4">being outshined by competators who used 256 vga graphics.</tspan><tspan x="0" y="2678.4" class="st2 st3 st4">Electronic Arts, who owned the rights to Wasteland attempted to make a sequal </tspan><tspan x="0" y="2721.6" class="st2 st3 st4">to Wasteland without Interplay’s involvement. They created a game called </tspan><tspan x="981.74" y="2721.6" class="st2 st3 st4 st7">	</tspan><tspan x="0" y="2764.8" class="st2 st3 st4">Fountain of Dreams. However, due to the scope and the difficulty of the game, </tspan><tspan x="0" y="2808" class="st2 st3 st4">it was met with poor reception from fans and critics. Interplay went in their </tspan><tspan x="0" y="2851.2" class="st2 st3 st4">own direction. Salvaging what they could and after nine years of work, Fallout </tspan><tspan x="0" y="2894.4" class="st2 st3 st4">was released. The designers at Interplay tried to secure the rights for the use </tspan><tspan x="0" y="2937.6" class="st2 st3 st4">of Steve Jackson’s GURPS system, also known as the General Universal </tspan><tspan x="0" y="2980.8" class="st2 st3 st4">Role-Playing System. And for a while, the game was actually called GURPS </tspan><tspan x="0" y="3024" class="st2 st3 st4">Wasteland. However due to the extreme violence that would be portrayed in the </tspan><tspan x="0" y="3067.2" class="st2 st3 st4">game, Steve Jackson would not allow them the rights to use the system.</tspan><tspan x="0" y="3110.4" class="st2 st3 st4">Because of this, Black Isle Studios developed the SPECIAL system, with each </tspan><tspan x="0" y="3153.6" class="st2 st3 st4">letter of the acronym corresponding to the traits Strength, Perception, </tspan><tspan x="961.08" y="3153.6" class="st2 st3 st4 st8">	</tspan><tspan x="972" y="3153.6" class="st2 st3 st4 st5">		</tspan><tspan x="0" y="3196.8" class="st2 st3 st4">Endurance, Charisma, Intelligance, Agility, and Luck. </tspan><tspan x="0" y="3715.2" class="st2 st3 st4">Unfortunately Fallout’s high amount of violence and mature subject matters </tspan><tspan x="0" y="3758.4" class="st2 st3 st4">weren’t always well recieved especially outside the United States. Controversial </tspan><tspan x="0" y="3801.6" class="st2 st3 st4">subjects like drug abuse and the killing of childeren were only some of the </tspan><tspan x="0" y="3844.8" class="st2 st3 st4">issues tackled by the Fallout series. Originally the first and second Fallout </tspan><tspan x="0" y="3888" class="st2 st3 st4">games had child non-playable characters wandering throughout the map. </tspan><tspan x="972.51" y="3888" class="st2 st3 st4 st5">	</tspan><tspan x="0" y="3931.2" class="st2 st3 st4">However, in the German and the U.K. versions of the game completely removed </tspan><tspan x="0" y="3974.4" class="st2 st3 st4">children in order to avoid any controversy. However, this meant that the child </tspan><tspan x="0" y="4017.6" class="st2 st3 st4">killer perk as well as the encounter with the bounty hunter, Chris Avallone who </tspan><tspan x="0" y="4060.8" class="st2 st3 st4">has a deep hatred for child killers, would be completely inacessable.</tspan><tspan x="0" y="4104" class="st2 st3 st4"> </tspan><tspan x="0" y="4147.2" class="st2 st3 st4">The original image surfaced on the original artist, Brian Menze put it on his </tspan><tspan x="0" y="4190.4" class="st2 st3 st4">portfolio.</tspan><tspan x="0" y="4233.6" class="st2 st3 st4">“This image was unused and the only Vault Boy image to ever be cut from Fall</tspan><tspan x="1050.29" y="4233.6" class="st2 st3 st4">-</tspan><tspan x="0" y="4276.8" class="st2 st3 st4">out 2. (I&apos;m sure you can figure out why) I remember when I got the request to </tspan><tspan x="0" y="4320" class="st2 st3 st4">do a perk illustration for &quot;Child Killer&quot; that there would be no way to keep in </tspan><tspan x="0" y="4363.2" class="st2 st3 st4">from being offensive. I mean really! How do you make an illustration of &quot;child </tspan><tspan x="0" y="4406.4" class="st2 st3 st4">killer&quot; and keep it from being offensive? Anyway for some reason, I thought </tspan><tspan x="0" y="4449.6" class="st2 st3 st4">this was the least offensive way to do it. I have no idea what I was thinking. </tspan><tspan x="0" y="4492.8" class="st2 st3 st4">Even the designer who requested it realized it was a bad idea, so we fixed it. </tspan><tspan x="0" y="4536" class="st2 st3 st4">Looking back on it now, I can&apos;t believe I drew this.”</tspan><tspan x="0" y="5097.6" class="st2 st3 st4">Drug referances and paraphernalia were also censored in various parts of the </tspan><tspan x="0" y="5140.8" class="st2 st3 st4">world. In the German and the UK release of Fallout changed phrases and word</tspan><tspan x="1042.82" y="5140.8" class="st2 st3 st4">-</tspan><tspan x="0" y="5184" class="st2 st3 st4">ing to avoid drug referances all together. Such as the word drug being changed </tspan><tspan x="0" y="5227.2" class="st2 st3 st4">to chem and the word addiction being changed to craving. Because of this, the </tspan><tspan x="0" y="5270.4" class="st2 st3 st4">term chem actually became the standard for all releases of the game. In the </tspan><tspan x="0" y="5313.6" class="st2 st3 st4">recent 3d Fallout games, Med-X a chem that increases defense for a short du</tspan><tspan x="1043.26" y="5313.6" class="st2 st3 st4">-</tspan><tspan x="0" y="5356.8" class="st2 st3 st4">ration, was originally called morphine. However the Australian Classification </tspan><tspan x="0" y="5400" class="st2 st3 st4">Board made it illegal to sell Fallout 3 in Australia due to the original referance </tspan><tspan x="0" y="5443.2" class="st2 st3 st4">to morphine. Because of this, the developers changed the game in order to </tspan><tspan x="0" y="5486.4" class="st2 st3 st4">remove all drug referances. However the original code still shows Med-X being </tspan><tspan x="0" y="5529.6" class="st2 st3 st4">listed as Morphine.</tspan><tspan x="0" y="6566.41" class="st2 st3 st4">There are many easter eggs and referances in the Fallout series over the </tspan><tspan x="0" y="6609.61" class="st2 st3 st4">years. A couple of the most notable in the first games are the referances to </tspan><tspan x="0" y="6652.81" class="st2 st3 st4">Godzilla and Dr. Who. Yhe player can find the referance to Godzilla by wandering </tspan><tspan x="0" y="6696.01" class="st2 st3 st4">the map and finding a giant reptillian footprint. However the referance to Dr. </tspan><tspan x="0" y="6739.21" class="st2 st3 st4">Who is a little more difficult to find. The Tartus can be encountered randomly </tspan><tspan x="0" y="6782.41" class="st2 st3 st4">while wandering the wasteland. However if the player tries to approach it, the </tspan><tspan x="0" y="6825.61" class="st2 st3 st4">Tartus disappears.</tspan></text>
	<g>
		<g>
			<path d="M1403.38,219.48c1.93,0,1.93-3,0-3C1401.45,216.48,1401.45,219.48,1403.38,219.48L1403.38,219.48z"/>
		</g>
	</g>
	<rect x="542.98" y="427.55" class="st1" width="245.11" height="231.32"/>
	<text transform="matrix(1 0 0 1 542.9785 516.4204)" class="st9 st3 st10">Facts</text>
	
		<image style="display:none;overflow:visible;" width="641" height="666" xlink:href="721F83E7.jpg"  transform="matrix(1 0 0 1 1274 914)">
	</image>
	<rect x="216" y="2" class="st0" width="984" height="92"/>
	<rect x="205" y="407" class="st0" width="984" height="92"/>
	<polygon class="st0" points="247,418 131,418 131,71 298,94 291,99 287,111 284,130 279,165 269,232 257,316 249,402 250,404 
		251,405 253,406 254,407 256,408 	"/>
	<polygon class="st0" points="1126,363 1123,385 1121,396 1120,400 1118,403 1116.02,404.6 1111,407 1190,457 1318,100 1185,91 
		1150,94 1153.81,94.56 1155,95 1157.13,96.61 1159.43,101 1158.69,113.63 1157,134 1153,171 1142,251 1131,328 	"/>
	<rect x="63.6" y="545.66" class="st1" width="602.55" height="132.77"/>
	<text transform="matrix(1 0 0 1 63.5957 595.5815)" class="st11 st12">Background</text>
	<rect x="38.6" y="2489.66" class="st1" width="602.55" height="132.77"/>
	<text transform="matrix(1 0 0 1 38.5957 2539.5815)" class="st11 st12">Development</text>
	<rect x="418.6" y="444.66" class="st1" width="602.55" height="132.77"/>
	<text transform="matrix(1 0 0 1 418.5957 493.8784)" class="st3 st12">History and Facts</text>
	
		<image style="overflow:visible;" width="633" height="311" xlink:href="721F83E2.jpg"  transform="matrix(1.4897 0 0 1.4897 340 1967)">
	</image>
	
		<image style="overflow:visible;" width="1366" height="768" xlink:href="721F83ED.jpg"  transform="matrix(0.4605 0 0 0.4605 39 7602)">
	</image>
	
		<image style="overflow:visible;" width="608" height="295" xlink:href="721F83EE.jpg"  transform="matrix(0.9819 0 0 1.2 686 7602)">
	</image>
</g>
<g id="Layer_2">
	
		<image style="overflow:visible;" width="1428" height="894" xlink:href="721F83EF.jpg"  transform="matrix(0.4314 0 0 0.4314 39 2906)">
	</image>
	
		<image style="overflow:visible;" width="625" height="872" xlink:href="721F83E4.jpg"  transform="matrix(0.5392 0 0 0.5392 39 1263)">
	</image>
	
		<image style="display:none;overflow:visible;" width="1024" height="512" xlink:href="7E8E0F9A.jpg"  transform="matrix(0.9121 0 0 0.9121 392 857)">
	</image>
	
		<image style="overflow:visible;" width="998" height="562" xlink:href="7E8E0F9D.jpg"  transform="matrix(0.8367 0 0 0.8367 442 1263)">
	</image>
	<rect x="38.91" y="7103.19" class="st1" width="780.09" height="136.85"/>
	<text transform="matrix(1 0 0 1 38.915 7153.1133)" class="st11 st12">Easter Eggs and Referances</text>
	<rect x="38.91" y="4197.19" class="st1" width="780.09" height="136.85"/>
	<text transform="matrix(1 0 0 1 38.915 4247.1133)" class="st11 st12">Censorship and Controversy</text>
	
		<image style="overflow:visible;" width="640" height="480" xlink:href="7E8E0F9E.jpg"  transform="matrix(1.3583 0 0 1.3583 138 6293)">
	</image>
	
		<image style="overflow:visible;" width="350" height="309" xlink:href="../65094.jpg"  transform="matrix(1.4337 0 0 1.4337 39 5282)">
	</image>
	
		<image style="overflow:visible;" width="640" height="1136" xlink:href="7E8E0F9B.jpg"  transform="matrix(0.4102 0 0 0.4102 39 1967)">
	</image>
</g>
</svg>
